<?xml version="1.0" encoding="utf-8"?>
<!-- Generator: Adobe Illustrator 23.0.3, SVG Export Plug-In . SVG Version: 6.00 Build 0)  -->
<svg version="1.1" id="Layer_1" xmlns="http://www.w3.org/2000/svg" xmlns:xlink="http://www.w3.org/1999/xlink" x="0px" y="0px"
	 viewBox="0 0 1313.5 182.7" style="enable-background:new 0 0 1313.5 182.7;" xml:space="preserve">
<style type="text/css">
	.st0{fill:#231F20;}
	.st1{fill:none;}
</style>
<title>Group 8</title>
<desc>Created with Sketch.</desc>
<g id="Desktop">
	<g id="Icons-Copy-2" transform="translate(-352.000000, -1798.000000)">
		<g id="Group-8" transform="translate(352.000000, 1798.000000)">
			<g id="Group-53" transform="translate(240.000000, 197.000000)">
				<path id="Fill-1" class="st0" d="M213.4-77.1c0,12.6-10.2,22.8-22.7,22.8c-12.6,0-22.7-10.2-22.7-22.8s10.2-22.8,22.7-22.8
					C203.2-100,213.4-89.7,213.4-77.1"/>
				<path id="Fill-3" class="st0" d="M190.7-25.8c-28.3,0-51.2-23-51.2-51.4s22.9-51.4,51.2-51.4s51.2,23,51.2,51.4
					S218.9-25.8,190.7-25.8 M190.7-139.9c-40.9,0-76,25.9-91,62.8c15,36.9,50.1,62.8,91,62.8s76-25.9,91-62.8
					C266.6-114,231.6-139.9,190.7-139.9"/>
				<g id="Group-7" transform="translate(3.569721, 0.000358)">
					<polygon id="Clip-6" class="st1" points="101.8,-197 272.4,-197 272.4,-128.5 101.8,-128.5 					"/>
					<path id="Fill-5" class="st0" d="M187.1-197c-36.4,0-68.2,20.6-85.3,51.4v17.1c20.4-24.4,51-39.9,85.3-39.9
						s64.9,15.5,85.3,39.9v-17.1C255.2-176.3,223.5-197,187.1-197"/>
				</g>
				<path id="Fill-8" d="M413.7-172.7c0,9.4-7.6,17.1-17,17.1s-17-7.7-17-17.1c0-9.4,7.6-17.1,17-17.1S413.7-182.2,413.7-172.7"/>
				<path id="Fill-10" d="M456.4-172.7c0,9.4-7.6,17.1-17,17.1s-17-7.7-17-17.1c0-9.4,7.6-17.1,17-17.1S456.4-182.2,456.4-172.7"/>
				<path id="Fill-12" d="M323.2-107.1l57.9-25.7l-19.5,62.2c-3.7,11.1-13,22-28.8,22C316.4-48.6,303-62,303-78.5
					C302.9-92.5,311.5-101.9,323.2-107.1"/>
				<path id="Fill-14" d="M512.9-107.1L455-132.8l19.5,62.2c3.7,11.1,13.1,22,28.9,22l0,0c16.4,0,29.7-13.4,29.7-29.9
					C533.1-92.5,524.6-101.9,512.9-107.1"/>
				<path id="Fill-16" d="M451.5-127.1c-5.9-12.6-18.7-21.4-33.5-21.4s-27.5,8.8-33.4,21.4H451.5z"/>
				<polygon id="Fill-18" points="455,-90 381.1,-90 381.1,-109.9 455,-109.9 				"/>
				<polygon id="Fill-20" points="455,-52.9 381.1,-52.9 381.1,-72.8 455,-72.8 				"/>
				<g id="Group-24" transform="translate(199.904382, 112.875358)">
					<polygon id="Clip-23" class="st1" points="184.7,-148.6 251.6,-148.6 251.6,-127.2 184.7,-127.2 					"/>
					<path id="Fill-22" d="M184.7-148.6c5.9,12.6,18.7,21.4,33.5,21.4s27.5-8.8,33.4-21.4H184.7z"/>
				</g>
				<polygon id="Fill-25" points="639.7,-18.6 643.8,-30.4 635.7,-30.4 				"/>
				<polygon id="Fill-27" points="631.9,-41.1 647.6,-41.1 651.7,-52.9 627.8,-52.9 				"/>
				<polygon id="Fill-29" points="624.1,-63.6 655.4,-63.6 659.5,-75.3 620,-75.3 				"/>
				<polygon id="Fill-31" points="616.2,-86 663.3,-86 667.4,-97.8 612.1,-97.8 				"/>
				<polygon id="Fill-33" points="569.4,-131 632.7,-131 628.7,-142.7 569.4,-142.7 				"/>
				<g id="Group-37" transform="translate(390.884462, 21.500358)">
					<polygon id="Clip-36" class="st1" points="263.6,-186.7 342.6,-186.7 342.6,-174.9 263.6,-174.9 					"/>
					<polygon id="Fill-35" points="263.6,-174.9 342.6,-174.9 342.6,-186.7 267.7,-186.7 					"/>
				</g>
				<polygon id="Fill-38" points="666.4,-187.6 662.3,-175.9 733.5,-175.9 733.5,-187.6 				"/>
				<polygon id="Clip-41" class="st1" points="99.7,-14.4 733.5,-14.4 733.5,-197 99.7,-197 				"/>
				<polygon id="Fill-40" points="546,-18.6 604.6,-18.6 604.6,-30.4 546,-30.4 				"/>
				<polygon id="Fill-42" points="546,-41.1 604.6,-41.1 604.6,-52.9 546,-52.9 				"/>
				<polygon id="Fill-43" points="569.4,-63.6 604.6,-63.6 604.6,-75.3 569.4,-75.3 				"/>
				<polygon id="Fill-44" points="569.4,-86 604.6,-86 604.6,-97.8 569.4,-97.8 				"/>
				<polygon id="Fill-45" points="710.1,-142.7 650.8,-142.7 646.7,-131 710.1,-131 				"/>
				<polygon id="Fill-46" points="674.9,-86 710.1,-86 710.1,-97.8 674.9,-97.8 				"/>
				<polygon id="Fill-47" points="674.9,-63.6 710.1,-63.6 710.1,-75.3 674.9,-75.3 				"/>
				<polygon id="Fill-48" points="674.9,-41.1 733.5,-41.1 733.5,-52.9 674.9,-52.9 				"/>
				<polygon id="Fill-49" points="674.9,-18.6 733.5,-18.6 733.5,-30.4 674.9,-30.4 				"/>
				<polygon id="Fill-50" points="625,-153.4 620.9,-165.2 546,-165.2 546,-153.4 				"/>
				<polygon id="Fill-51" points="617.2,-175.9 613.1,-187.6 546,-187.6 546,-175.9 				"/>
				<polygon id="Fill-52" points="674.9,-108.5 710.1,-108.5 710.1,-120.3 674.9,-120.3 643,-120.3 639.7,-110.7 636.5,-120.3 
					569.4,-120.3 569.4,-108.5 604.6,-108.5 604.6,-119.3 608.4,-108.5 671.1,-108.5 674.9,-119.3 				"/>
			</g>
		</g>
	</g>
</g>
</svg>
